<mxfile host="www.draw.io" modified="2020-01-16T07:21:21.384Z" agent="Mozilla/5.0 (Windows NT 10.0; Win64; x64) AppleWebKit/537.36 (KHTML, like Gecko) Chrome/79.0.3945.117 Safari/537.36" etag="k31arF2Mdd4tsL1wERen" version="12.5.3" type="github" pages="3">
  <diagram id="mbmvT_s4quwOLytRLC_f" name="Page-1">
    <mxGraphModel dx="1038" dy="548" grid="1" gridSize="10" guides="1" tooltips="1" connect="1" arrows="1" fold="1" page="1" pageScale="1" pageWidth="1169" pageHeight="827" math="0" shadow="0">
      <root>
        <mxCell id="0"/>
        <mxCell id="1" parent="0"/>
        <mxCell id="8in3cXSB_DDe3cNZoF7z-1" value="&lt;pre style=&quot;background-color: rgb(255 , 255 , 255) ; font-family: &amp;#34;consolas&amp;#34; ; font-size: 9.8pt&quot;&gt;Cache&lt;/pre&gt;" style="html=1;" parent="1" vertex="1">
          <mxGeometry x="440" y="100" width="110" height="50" as="geometry"/>
        </mxCell>
        <mxCell id="8in3cXSB_DDe3cNZoF7z-7" style="edgeStyle=orthogonalEdgeStyle;rounded=0;orthogonalLoop=1;jettySize=auto;html=1;entryX=0.25;entryY=1;entryDx=0;entryDy=0;dashed=1;exitX=1;exitY=0.5;exitDx=0;exitDy=0;" parent="1" source="8in3cXSB_DDe3cNZoF7z-6" target="8in3cXSB_DDe3cNZoF7z-1" edge="1">
          <mxGeometry relative="1" as="geometry"/>
        </mxCell>
        <mxCell id="8in3cXSB_DDe3cNZoF7z-2" value="PerpetualCache" style="swimlane;fontStyle=1;align=center;verticalAlign=top;childLayout=stackLayout;horizontal=1;startSize=26;horizontalStack=0;resizeParent=1;resizeParentMax=0;resizeLast=0;collapsible=1;marginBottom=0;" parent="1" vertex="1">
          <mxGeometry x="180" y="230" width="160" height="112" as="geometry"/>
        </mxCell>
        <mxCell id="8in3cXSB_DDe3cNZoF7z-3" value="id: String&#xa;&#xa;" style="text;strokeColor=none;fillColor=none;align=left;verticalAlign=top;spacingLeft=4;spacingRight=4;overflow=hidden;rotatable=0;points=[[0,0.5],[1,0.5]];portConstraint=eastwest;" parent="8in3cXSB_DDe3cNZoF7z-2" vertex="1">
          <mxGeometry y="26" width="160" height="26" as="geometry"/>
        </mxCell>
        <mxCell id="8in3cXSB_DDe3cNZoF7z-6" value="cache: HashMap&#xa;&#xa;" style="text;strokeColor=none;fillColor=none;align=left;verticalAlign=top;spacingLeft=4;spacingRight=4;overflow=hidden;rotatable=0;points=[[0,0.5],[1,0.5]];portConstraint=eastwest;" parent="8in3cXSB_DDe3cNZoF7z-2" vertex="1">
          <mxGeometry y="52" width="160" height="26" as="geometry"/>
        </mxCell>
        <mxCell id="8in3cXSB_DDe3cNZoF7z-4" value="" style="line;strokeWidth=1;fillColor=none;align=left;verticalAlign=middle;spacingTop=-1;spacingLeft=3;spacingRight=3;rotatable=0;labelPosition=right;points=[];portConstraint=eastwest;" parent="8in3cXSB_DDe3cNZoF7z-2" vertex="1">
          <mxGeometry y="78" width="160" height="8" as="geometry"/>
        </mxCell>
        <mxCell id="8in3cXSB_DDe3cNZoF7z-5" value="PerpetualCache(id)" style="text;strokeColor=none;fillColor=none;align=left;verticalAlign=top;spacingLeft=4;spacingRight=4;overflow=hidden;rotatable=0;points=[[0,0.5],[1,0.5]];portConstraint=eastwest;" parent="8in3cXSB_DDe3cNZoF7z-2" vertex="1">
          <mxGeometry y="86" width="160" height="26" as="geometry"/>
        </mxCell>
        <mxCell id="8in3cXSB_DDe3cNZoF7z-8" value="BlockingCache" style="swimlane;fontStyle=1;align=center;verticalAlign=top;childLayout=stackLayout;horizontal=1;startSize=26;horizontalStack=0;resizeParent=1;resizeParentMax=0;resizeLast=0;collapsible=1;marginBottom=0;" parent="1" vertex="1">
          <mxGeometry x="660" y="241" width="160" height="86" as="geometry"/>
        </mxCell>
        <mxCell id="8in3cXSB_DDe3cNZoF7z-9" value="delegate：Cache" style="text;strokeColor=none;fillColor=none;align=left;verticalAlign=top;spacingLeft=4;spacingRight=4;overflow=hidden;rotatable=0;points=[[0,0.5],[1,0.5]];portConstraint=eastwest;" parent="8in3cXSB_DDe3cNZoF7z-8" vertex="1">
          <mxGeometry y="26" width="160" height="26" as="geometry"/>
        </mxCell>
        <mxCell id="8in3cXSB_DDe3cNZoF7z-10" value="" style="line;strokeWidth=1;fillColor=none;align=left;verticalAlign=middle;spacingTop=-1;spacingLeft=3;spacingRight=3;rotatable=0;labelPosition=right;points=[];portConstraint=eastwest;" parent="8in3cXSB_DDe3cNZoF7z-8" vertex="1">
          <mxGeometry y="52" width="160" height="8" as="geometry"/>
        </mxCell>
        <mxCell id="8in3cXSB_DDe3cNZoF7z-11" value="BlockingCache(delegate)" style="text;strokeColor=none;fillColor=none;align=left;verticalAlign=top;spacingLeft=4;spacingRight=4;overflow=hidden;rotatable=0;points=[[0,0.5],[1,0.5]];portConstraint=eastwest;" parent="8in3cXSB_DDe3cNZoF7z-8" vertex="1">
          <mxGeometry y="60" width="160" height="26" as="geometry"/>
        </mxCell>
        <mxCell id="8in3cXSB_DDe3cNZoF7z-14" value="1" style="endArrow=open;html=1;endSize=12;startArrow=diamondThin;startSize=14;startFill=1;edgeStyle=orthogonalEdgeStyle;align=left;verticalAlign=bottom;entryX=1;entryY=0.5;entryDx=0;entryDy=0;exitX=1;exitY=0.5;exitDx=0;exitDy=0;" parent="1" source="8in3cXSB_DDe3cNZoF7z-9" target="8in3cXSB_DDe3cNZoF7z-1" edge="1">
          <mxGeometry x="-1" y="3" relative="1" as="geometry">
            <mxPoint x="850" y="210" as="sourcePoint"/>
            <mxPoint x="570" y="380" as="targetPoint"/>
            <Array as="points">
              <mxPoint x="920" y="280"/>
              <mxPoint x="920" y="125"/>
            </Array>
          </mxGeometry>
        </mxCell>
        <mxCell id="8in3cXSB_DDe3cNZoF7z-15" style="edgeStyle=orthogonalEdgeStyle;rounded=0;orthogonalLoop=1;jettySize=auto;html=1;entryX=0.75;entryY=1;entryDx=0;entryDy=0;dashed=1;" parent="1" target="8in3cXSB_DDe3cNZoF7z-1" edge="1">
          <mxGeometry relative="1" as="geometry">
            <mxPoint x="660" y="290" as="sourcePoint"/>
            <mxPoint x="477.5" y="160" as="targetPoint"/>
            <Array as="points">
              <mxPoint x="660" y="290"/>
              <mxPoint x="523" y="290"/>
            </Array>
          </mxGeometry>
        </mxCell>
        <mxCell id="8in3cXSB_DDe3cNZoF7z-16" value="&lt;b&gt;&lt;font style=&quot;font-size: 14px&quot;&gt;Component&lt;/font&gt;&lt;/b&gt;" style="text;html=1;strokeColor=none;fillColor=none;align=center;verticalAlign=middle;whiteSpace=wrap;rounded=0;" parent="1" vertex="1">
          <mxGeometry x="457.5" y="70" width="75" height="20" as="geometry"/>
        </mxCell>
        <mxCell id="8in3cXSB_DDe3cNZoF7z-17" value="&lt;font style=&quot;font-size: 14px&quot;&gt;&lt;b&gt;ConcreteComponent&lt;/b&gt;&lt;/font&gt;" style="text;html=1;strokeColor=none;fillColor=none;align=center;verticalAlign=middle;whiteSpace=wrap;rounded=0;" parent="1" vertex="1">
          <mxGeometry x="170" y="200" width="160" height="20" as="geometry"/>
        </mxCell>
        <mxCell id="8in3cXSB_DDe3cNZoF7z-18" value="&lt;font style=&quot;font-size: 14px&quot;&gt;&lt;b&gt;ConcreteDecorator&lt;/b&gt;&lt;/font&gt;" style="text;html=1;strokeColor=none;fillColor=none;align=center;verticalAlign=middle;whiteSpace=wrap;rounded=0;" parent="1" vertex="1">
          <mxGeometry x="675" y="210" width="130" height="20" as="geometry"/>
        </mxCell>
      </root>
    </mxGraphModel>
  </diagram>
  <diagram id="oSZH6I19hf3AU3YgcyIH" name="Page-2">
    <mxGraphModel dx="1038" dy="548" grid="1" gridSize="10" guides="1" tooltips="1" connect="1" arrows="1" fold="1" page="1" pageScale="1" pageWidth="1169" pageHeight="827" math="0" shadow="0">
      <root>
        <mxCell id="Gfg_g4gpv8ciPO7Qn-cO-0"/>
        <mxCell id="Gfg_g4gpv8ciPO7Qn-cO-1" parent="Gfg_g4gpv8ciPO7Qn-cO-0"/>
        <mxCell id="Gfg_g4gpv8ciPO7Qn-cO-9" value="" style="html=1;points=[];perimeter=orthogonalPerimeter;fontSize=12;fontColor=#97D077;" vertex="1" parent="Gfg_g4gpv8ciPO7Qn-cO-1">
          <mxGeometry x="100" y="180" width="10" height="340" as="geometry"/>
        </mxCell>
        <mxCell id="Gfg_g4gpv8ciPO7Qn-cO-12" value="" style="html=1;points=[];perimeter=orthogonalPerimeter;fontSize=12;fontColor=#97D077;" vertex="1" parent="Gfg_g4gpv8ciPO7Qn-cO-1">
          <mxGeometry x="260" y="180" width="10" height="340" as="geometry"/>
        </mxCell>
        <mxCell id="Gfg_g4gpv8ciPO7Qn-cO-13" value="&lt;span style=&quot;white-space: normal&quot;&gt;Mapper/Mapper.xml&lt;br&gt;&lt;/span&gt;&lt;span style=&quot;font-family: &amp;#34;source code pro&amp;#34; , &amp;#34;dejavu sans mono&amp;#34; , &amp;#34;ubuntu mono&amp;#34; , &amp;#34;anonymous pro&amp;#34; , &amp;#34;droid sans mono&amp;#34; , &amp;#34;menlo&amp;#34; , &amp;#34;monaco&amp;#34; , &amp;#34;consolas&amp;#34; , &amp;#34;inconsolata&amp;#34; , &amp;#34;courier&amp;#34; , monospace , &amp;#34;pingfang sc&amp;#34; , &amp;#34;microsoft yahei&amp;#34; , sans-serif ; text-align: left ; white-space: pre ; background-color: rgb(250 , 250 , 250)&quot;&gt;Config/Mybatis.xml&lt;/span&gt;&lt;span style=&quot;white-space: normal&quot;&gt;&lt;br&gt;&lt;/span&gt;" style="html=1;fontSize=12;fontColor=#97D077;" vertex="1" parent="Gfg_g4gpv8ciPO7Qn-cO-1">
          <mxGeometry x="30" y="120" width="140" height="50" as="geometry"/>
        </mxCell>
        <mxCell id="Gfg_g4gpv8ciPO7Qn-cO-15" value="create" style="html=1;verticalAlign=bottom;endArrow=block;fontSize=9;fontColor=#97D077;" edge="1" parent="Gfg_g4gpv8ciPO7Qn-cO-1">
          <mxGeometry x="0.0411" width="80" relative="1" as="geometry">
            <mxPoint x="114" y="250" as="sourcePoint"/>
            <mxPoint x="260" y="250" as="targetPoint"/>
            <Array as="points">
              <mxPoint x="180" y="250"/>
            </Array>
            <mxPoint as="offset"/>
          </mxGeometry>
        </mxCell>
        <mxCell id="Gfg_g4gpv8ciPO7Qn-cO-16" value="SqlSessionFactoryBuilder" style="html=1;fontSize=12;fontColor=#97D077;" vertex="1" parent="Gfg_g4gpv8ciPO7Qn-cO-1">
          <mxGeometry x="200" y="120" width="150" height="50" as="geometry"/>
        </mxCell>
        <mxCell id="Gfg_g4gpv8ciPO7Qn-cO-17" value="" style="html=1;points=[];perimeter=orthogonalPerimeter;fontSize=9;fontColor=#97D077;" vertex="1" parent="Gfg_g4gpv8ciPO7Qn-cO-1">
          <mxGeometry x="430" y="180" width="10" height="340" as="geometry"/>
        </mxCell>
        <mxCell id="Gfg_g4gpv8ciPO7Qn-cO-18" value="XMLConfigBuilder" style="html=1;fontSize=9;fontColor=#97D077;" vertex="1" parent="Gfg_g4gpv8ciPO7Qn-cO-1">
          <mxGeometry x="390" y="120" width="110" height="50" as="geometry"/>
        </mxCell>
        <mxCell id="Gfg_g4gpv8ciPO7Qn-cO-19" value="" style="html=1;points=[];perimeter=orthogonalPerimeter;fontSize=9;fontColor=#97D077;" vertex="1" parent="Gfg_g4gpv8ciPO7Qn-cO-1">
          <mxGeometry x="620" y="180" width="10" height="340" as="geometry"/>
        </mxCell>
        <mxCell id="Gfg_g4gpv8ciPO7Qn-cO-20" value="Configuration" style="html=1;fontSize=9;fontColor=#97D077;" vertex="1" parent="Gfg_g4gpv8ciPO7Qn-cO-1">
          <mxGeometry x="570" y="120" width="110" height="50" as="geometry"/>
        </mxCell>
        <mxCell id="Gfg_g4gpv8ciPO7Qn-cO-21" value="Object" style="html=1;fontSize=9;fontColor=#97D077;" vertex="1" parent="Gfg_g4gpv8ciPO7Qn-cO-1">
          <mxGeometry x="30" y="540" width="110" height="50" as="geometry"/>
        </mxCell>
      </root>
    </mxGraphModel>
  </diagram>
  <diagram id="fsJhQ2gZHEvPMynW4JiI" name="Page-3">
    <mxGraphModel dx="1483" dy="783" grid="1" gridSize="10" guides="1" tooltips="1" connect="1" arrows="1" fold="1" page="1" pageScale="1" pageWidth="4681" pageHeight="3300" math="0" shadow="0">
      <root>
        <mxCell id="Gv2Qc7tdXLgh2rP-bJ0o-0"/>
        <mxCell id="Gv2Qc7tdXLgh2rP-bJ0o-1" parent="Gv2Qc7tdXLgh2rP-bJ0o-0"/>
        <mxCell id="Gv2Qc7tdXLgh2rP-bJ0o-2" value="&lt;span style=&quot;white-space: normal&quot;&gt;Mapper/Mapper.xml&lt;br&gt;&lt;/span&gt;&lt;span style=&quot;font-family: &amp;#34;source code pro&amp;#34; , &amp;#34;dejavu sans mono&amp;#34; , &amp;#34;ubuntu mono&amp;#34; , &amp;#34;anonymous pro&amp;#34; , &amp;#34;droid sans mono&amp;#34; , &amp;#34;menlo&amp;#34; , &amp;#34;monaco&amp;#34; , &amp;#34;consolas&amp;#34; , &amp;#34;inconsolata&amp;#34; , &amp;#34;courier&amp;#34; , monospace , &amp;#34;pingfang sc&amp;#34; , &amp;#34;microsoft yahei&amp;#34; , sans-serif ; text-align: left ; white-space: pre ; background-color: rgb(250 , 250 , 250)&quot;&gt;Config/Mybatis.xml&lt;/span&gt;&lt;span style=&quot;white-space: normal&quot;&gt;&lt;br&gt;&lt;/span&gt;" style="html=1;fontSize=12;fontColor=#97D077;" vertex="1" parent="Gv2Qc7tdXLgh2rP-bJ0o-1">
          <mxGeometry x="388" y="70" width="140" height="50" as="geometry"/>
        </mxCell>
        <mxCell id="NDvhtq6lrwhPzbKVxsZG-2" value="SqlSessionFactoryBuilder&lt;span style=&quot;white-space: normal&quot;&gt;&lt;br&gt;&lt;/span&gt;" style="html=1;fontSize=12;fontColor=#97D077;align=center;" vertex="1" parent="Gv2Qc7tdXLgh2rP-bJ0o-1">
          <mxGeometry x="380" y="180" width="160" height="50" as="geometry"/>
        </mxCell>
        <mxCell id="NDvhtq6lrwhPzbKVxsZG-4" value="&lt;span style=&quot;font-size: 9px&quot;&gt;XMLConfigBuilder&lt;/span&gt;&lt;span style=&quot;white-space: normal&quot;&gt;&lt;br&gt;&lt;/span&gt;" style="html=1;fontSize=12;fontColor=#97D077;align=center;" vertex="1" parent="Gv2Qc7tdXLgh2rP-bJ0o-1">
          <mxGeometry x="570" y="180" width="140" height="50" as="geometry"/>
        </mxCell>
        <mxCell id="8kHYkIOkYYeyaM6KL_z0-6" value="&lt;pre style=&quot;color: rgb(0 , 0 , 0) ; font-size: 9.8pt ; font-family: &amp;quot;consolas&amp;quot;&quot;&gt;Configuration&lt;/pre&gt;" style="html=1;fontSize=12;fontColor=#97D077;align=center;" vertex="1" parent="Gv2Qc7tdXLgh2rP-bJ0o-1">
          <mxGeometry x="730" y="180" width="140" height="50" as="geometry"/>
        </mxCell>
        <mxCell id="8kHYkIOkYYeyaM6KL_z0-12" value="&lt;pre style=&quot;color: rgb(0 , 0 , 0) ; font-size: 9.8pt ; font-family: &amp;quot;consolas&amp;quot;&quot;&gt;&lt;pre style=&quot;background-color: rgb(255 , 255 , 255) ; font-family: &amp;quot;consolas&amp;quot; ; font-size: 9.8pt&quot;&gt;MapperRegistry&lt;/pre&gt;&lt;/pre&gt;" style="html=1;fontSize=12;fontColor=#97D077;align=center;" vertex="1" parent="Gv2Qc7tdXLgh2rP-bJ0o-1">
          <mxGeometry x="1290" y="180" width="155" height="50" as="geometry"/>
        </mxCell>
        <mxCell id="8kHYkIOkYYeyaM6KL_z0-10" value="&lt;pre style=&quot;color: rgb(0 , 0 , 0) ; font-size: 9.8pt ; font-family: &amp;quot;consolas&amp;quot;&quot;&gt;&lt;pre style=&quot;background-color: rgb(255 , 255 , 255) ; font-family: &amp;quot;consolas&amp;quot; ; font-size: 9.8pt&quot;&gt;TypeHandlerRegistry&lt;/pre&gt;&lt;/pre&gt;" style="html=1;fontSize=12;fontColor=#97D077;align=center;" vertex="1" parent="Gv2Qc7tdXLgh2rP-bJ0o-1">
          <mxGeometry x="1100" y="180" width="140" height="50" as="geometry"/>
        </mxCell>
        <mxCell id="8kHYkIOkYYeyaM6KL_z0-8" value="&lt;pre style=&quot;color: rgb(0 , 0 , 0) ; font-size: 9.8pt ; font-family: &amp;quot;consolas&amp;quot;&quot;&gt;&lt;pre style=&quot;font-size: 9.8pt ; background-color: rgb(255 , 255 , 255) ; font-family: &amp;quot;consolas&amp;quot;&quot;&gt;TypeAliasRegistry&lt;/pre&gt;&lt;/pre&gt;" style="html=1;fontSize=12;fontColor=#97D077;align=center;" vertex="1" parent="Gv2Qc7tdXLgh2rP-bJ0o-1">
          <mxGeometry x="910" y="180" width="140" height="50" as="geometry"/>
        </mxCell>
        <mxCell id="8kHYkIOkYYeyaM6KL_z0-0" value="&lt;pre style=&quot;background-color: #ffffff ; color: #000000 ; font-family: &amp;quot;consolas&amp;quot; ; font-size: 9.8pt&quot;&gt;&lt;pre style=&quot;font-family: &amp;quot;consolas&amp;quot; ; font-size: 9.8pt&quot;&gt;&lt;pre style=&quot;font-family: &amp;quot;consolas&amp;quot; ; font-size: 9.8pt&quot;&gt;XMLMapperBuilder&lt;/pre&gt;&lt;/pre&gt;&lt;/pre&gt;" style="html=1;fontSize=12;fontColor=#97D077;align=center;" vertex="1" parent="Gv2Qc7tdXLgh2rP-bJ0o-1">
          <mxGeometry x="1510" y="180" width="140" height="50" as="geometry"/>
        </mxCell>
        <mxCell id="8kHYkIOkYYeyaM6KL_z0-25" value="&lt;pre style=&quot;background-color: #ffffff ; color: #000000 ; font-family: &amp;#34;consolas&amp;#34; ; font-size: 9.8pt&quot;&gt;&lt;pre style=&quot;font-family: &amp;#34;consolas&amp;#34; ; font-size: 9.8pt&quot;&gt;&lt;pre style=&quot;font-family: &amp;#34;consolas&amp;#34; ; font-size: 9.8pt&quot;&gt;&lt;pre style=&quot;font-family: &amp;#34;consolas&amp;#34; ; font-size: 9.8pt&quot;&gt;&lt;pre style=&quot;font-family: &amp;#34;consolas&amp;#34; ; font-size: 9.8pt&quot;&gt;ParameterMap&lt;/pre&gt;&lt;/pre&gt;&lt;/pre&gt;&lt;/pre&gt;&lt;/pre&gt;" style="html=1;fontSize=12;fontColor=#97D077;" vertex="1" parent="Gv2Qc7tdXLgh2rP-bJ0o-1">
          <mxGeometry x="2180" y="180" width="160" height="50" as="geometry"/>
        </mxCell>
        <mxCell id="8kHYkIOkYYeyaM6KL_z0-23" value="&lt;pre style=&quot;background-color: #ffffff ; color: #000000 ; font-family: &amp;#34;consolas&amp;#34; ; font-size: 9.8pt&quot;&gt;&lt;pre style=&quot;font-family: &amp;#34;consolas&amp;#34; ; font-size: 9.8pt&quot;&gt;&lt;pre style=&quot;font-family: &amp;#34;consolas&amp;#34; ; font-size: 9.8pt&quot;&gt;&lt;pre style=&quot;font-family: &amp;#34;consolas&amp;#34; ; font-size: 9.8pt&quot;&gt;&lt;pre style=&quot;font-family: &amp;#34;consolas&amp;#34; ; font-size: 9.8pt&quot;&gt;Cache&lt;/pre&gt;&lt;/pre&gt;&lt;/pre&gt;&lt;/pre&gt;&lt;/pre&gt;" style="html=1;fontSize=12;fontColor=#97D077;" vertex="1" parent="Gv2Qc7tdXLgh2rP-bJ0o-1">
          <mxGeometry x="1930" y="180" width="160" height="50" as="geometry"/>
        </mxCell>
        <mxCell id="8kHYkIOkYYeyaM6KL_z0-14" value="&lt;pre style=&quot;background-color: #ffffff ; color: #000000 ; font-family: &amp;#34;consolas&amp;#34; ; font-size: 9.8pt&quot;&gt;&lt;pre style=&quot;font-family: &amp;#34;consolas&amp;#34; ; font-size: 9.8pt&quot;&gt;&lt;pre style=&quot;font-family: &amp;#34;consolas&amp;#34; ; font-size: 9.8pt&quot;&gt;&lt;pre style=&quot;font-family: &amp;#34;consolas&amp;#34; ; font-size: 9.8pt&quot;&gt;XMLStatementBuilder&lt;/pre&gt;&lt;/pre&gt;&lt;/pre&gt;&lt;/pre&gt;" style="html=1;fontSize=12;fontColor=#97D077;" vertex="1" parent="Gv2Qc7tdXLgh2rP-bJ0o-1">
          <mxGeometry x="1730" y="180" width="140" height="50" as="geometry"/>
        </mxCell>
        <mxCell id="8kHYkIOkYYeyaM6KL_z0-16" value="&lt;pre style=&quot;background-color: #ffffff ; color: #000000 ; font-family: &amp;#34;consolas&amp;#34; ; font-size: 9.8pt&quot;&gt;&lt;pre style=&quot;font-family: &amp;#34;consolas&amp;#34; ; font-size: 9.8pt&quot;&gt;&lt;pre style=&quot;font-family: &amp;#34;consolas&amp;#34; ; font-size: 9.8pt&quot;&gt;&lt;pre style=&quot;font-family: &amp;#34;consolas&amp;#34; ; font-size: 9.8pt&quot;&gt;&lt;pre style=&quot;font-family: &amp;#34;consolas&amp;#34; ; font-size: 9.8pt&quot;&gt;MappedStatement&lt;/pre&gt;&lt;/pre&gt;&lt;/pre&gt;&lt;/pre&gt;&lt;/pre&gt;" style="html=1;fontSize=12;fontColor=#97D077;" vertex="1" parent="Gv2Qc7tdXLgh2rP-bJ0o-1">
          <mxGeometry x="2660" y="180" width="140" height="50" as="geometry"/>
        </mxCell>
        <mxCell id="8kHYkIOkYYeyaM6KL_z0-28" value="ResultMap" style="html=1;fontSize=9;fontColor=#97D077;" vertex="1" parent="Gv2Qc7tdXLgh2rP-bJ0o-1">
          <mxGeometry x="2460" y="180" width="110" height="50" as="geometry"/>
        </mxCell>
        <mxCell id="8kHYkIOkYYeyaM6KL_z0-29" value="" style="html=1;points=[];perimeter=orthogonalPerimeter;fontSize=9;fontColor=#97D077;" vertex="1" parent="Gv2Qc7tdXLgh2rP-bJ0o-1">
          <mxGeometry x="440" y="270" width="10" height="270" as="geometry"/>
        </mxCell>
        <mxCell id="8kHYkIOkYYeyaM6KL_z0-30" value="" style="html=1;points=[];perimeter=orthogonalPerimeter;fontSize=9;fontColor=#97D077;" vertex="1" parent="Gv2Qc7tdXLgh2rP-bJ0o-1">
          <mxGeometry x="630" y="270" width="10" height="270" as="geometry"/>
        </mxCell>
        <mxCell id="8kHYkIOkYYeyaM6KL_z0-31" value="" style="html=1;points=[];perimeter=orthogonalPerimeter;fontSize=9;fontColor=#97D077;" vertex="1" parent="Gv2Qc7tdXLgh2rP-bJ0o-1">
          <mxGeometry x="795" y="260" width="10" height="270" as="geometry"/>
        </mxCell>
        <mxCell id="8kHYkIOkYYeyaM6KL_z0-32" value="" style="html=1;points=[];perimeter=orthogonalPerimeter;fontSize=9;fontColor=#97D077;" vertex="1" parent="Gv2Qc7tdXLgh2rP-bJ0o-1">
          <mxGeometry x="975" y="260" width="10" height="270" as="geometry"/>
        </mxCell>
        <mxCell id="8kHYkIOkYYeyaM6KL_z0-33" value="" style="html=1;points=[];perimeter=orthogonalPerimeter;fontSize=9;fontColor=#97D077;" vertex="1" parent="Gv2Qc7tdXLgh2rP-bJ0o-1">
          <mxGeometry x="1170" y="270" width="10" height="270" as="geometry"/>
        </mxCell>
        <mxCell id="8kHYkIOkYYeyaM6KL_z0-34" value="" style="html=1;points=[];perimeter=orthogonalPerimeter;fontSize=9;fontColor=#97D077;" vertex="1" parent="Gv2Qc7tdXLgh2rP-bJ0o-1">
          <mxGeometry x="1362.5" y="260" width="10" height="270" as="geometry"/>
        </mxCell>
        <mxCell id="8kHYkIOkYYeyaM6KL_z0-35" value="" style="html=1;points=[];perimeter=orthogonalPerimeter;fontSize=9;fontColor=#97D077;" vertex="1" parent="Gv2Qc7tdXLgh2rP-bJ0o-1">
          <mxGeometry x="1575" y="270" width="10" height="270" as="geometry"/>
        </mxCell>
        <mxCell id="8kHYkIOkYYeyaM6KL_z0-36" value="" style="html=1;points=[];perimeter=orthogonalPerimeter;fontSize=9;fontColor=#97D077;" vertex="1" parent="Gv2Qc7tdXLgh2rP-bJ0o-1">
          <mxGeometry x="1795" y="260" width="10" height="270" as="geometry"/>
        </mxCell>
        <mxCell id="8kHYkIOkYYeyaM6KL_z0-37" value="" style="html=1;points=[];perimeter=orthogonalPerimeter;fontSize=9;fontColor=#97D077;" vertex="1" parent="Gv2Qc7tdXLgh2rP-bJ0o-1">
          <mxGeometry x="2005" y="260" width="10" height="270" as="geometry"/>
        </mxCell>
        <mxCell id="8kHYkIOkYYeyaM6KL_z0-38" value="" style="html=1;points=[];perimeter=orthogonalPerimeter;fontSize=9;fontColor=#97D077;" vertex="1" parent="Gv2Qc7tdXLgh2rP-bJ0o-1">
          <mxGeometry x="2225" y="260" width="10" height="270" as="geometry"/>
        </mxCell>
        <mxCell id="8kHYkIOkYYeyaM6KL_z0-39" value="" style="html=1;points=[];perimeter=orthogonalPerimeter;fontSize=9;fontColor=#97D077;" vertex="1" parent="Gv2Qc7tdXLgh2rP-bJ0o-1">
          <mxGeometry x="2510" y="260" width="10" height="270" as="geometry"/>
        </mxCell>
        <mxCell id="8kHYkIOkYYeyaM6KL_z0-40" value="" style="html=1;points=[];perimeter=orthogonalPerimeter;fontSize=9;fontColor=#97D077;" vertex="1" parent="Gv2Qc7tdXLgh2rP-bJ0o-1">
          <mxGeometry x="2725" y="270" width="10" height="270" as="geometry"/>
        </mxCell>
      </root>
    </mxGraphModel>
  </diagram>
</mxfile>
